<svg width="1024" height="446" viewBox="0 0 1024 446" fill="none" xmlns="http://www.w3.org/2000/svg">
<path d="M0 20C0 8.95432 8.95431 0 20 0H1004C1015.05 0 1024 8.95431 1024 20V426C1024 437.046 1015.05 446 1004 446H20C8.95431 446 0 437.046 0 426V20Z" fill="#F5F5F7"/>
<path d="M751.922 50.0898V67H754.031V60.9648H757.934C761.109 60.9648 763.371 58.7266 763.371 55.5156C763.371 52.3164 761.133 50.0898 757.957 50.0898H751.922ZM754.031 51.9648H757.406C759.832 51.9648 761.203 53.2773 761.203 55.5156C761.203 57.7656 759.82 59.0898 757.406 59.0898H754.031V51.9648ZM775.488 54.8125H773.449V61.9727C773.449 64.0469 772.254 65.4062 770.273 65.4062C768.387 65.4062 767.461 64.3398 767.461 62.3594V54.8125H765.422V62.7227C765.422 65.4883 766.98 67.2109 769.641 67.2109C771.516 67.2109 772.781 66.4258 773.508 65.0195H773.555V67H775.488V54.8125ZM784.195 67.2109C787.312 67.2109 789.375 64.7383 789.375 60.9062C789.375 57.0859 787.301 54.6016 784.23 54.6016C782.508 54.6016 781.09 55.457 780.328 56.8516H780.281V50.0898H778.242V67H780.188V64.9375H780.234C781.02 66.3438 782.414 67.2109 784.195 67.2109ZM783.797 56.3945C785.953 56.3945 787.289 58.1406 787.289 60.9062C787.289 63.6953 785.953 65.418 783.797 65.418C781.734 65.418 780.27 63.625 780.27 60.9062C780.27 58.1992 781.734 56.3945 783.797 56.3945ZM791.555 67H793.594V50.0898H791.555V67ZM797.473 52.6445C798.188 52.6445 798.75 52.0703 798.75 51.3672C798.75 50.6523 798.188 50.0898 797.473 50.0898C796.77 50.0898 796.195 50.6523 796.195 51.3672C796.195 52.0703 796.77 52.6445 797.473 52.6445ZM796.453 67H798.492V54.8125H796.453V67ZM801.035 58.1758C801.035 59.9336 802.148 61 804.445 61.5508L806.379 62.0195C807.773 62.3594 808.254 62.8633 808.254 63.7422C808.254 64.8438 807.234 65.5469 805.582 65.5469C803.93 65.5469 802.992 64.8789 802.746 63.4844H800.707C800.941 65.7695 802.723 67.2109 805.582 67.2109C808.301 67.2109 810.305 65.7109 810.305 63.5898C810.305 61.8438 809.414 60.8828 806.953 60.2852L805.02 59.8164C803.66 59.4883 803.039 58.9141 803.039 58.0703C803.039 57.0039 804.023 56.2656 805.512 56.2656C807.012 56.2656 807.949 57.0508 808.102 58.3281H810.047C809.965 56.1719 808.184 54.6016 805.512 54.6016C802.875 54.6016 801.035 56.0898 801.035 58.1758ZM812.531 67H814.57V59.8984C814.57 57.7891 815.824 56.4062 817.852 56.4062C819.762 56.4062 820.734 57.5664 820.734 59.5V67H822.773V59.125C822.773 56.4062 821.156 54.6016 818.484 54.6016C816.633 54.6016 815.297 55.3984 814.617 56.7578H814.57V50.0898H812.531V67ZM833.449 63.5078C833.109 64.6562 831.973 65.4414 830.426 65.4414C828.234 65.4414 826.863 63.9062 826.863 61.5742V61.457H835.605V60.6836C835.605 56.9922 833.578 54.6016 830.285 54.6016C826.922 54.6016 824.766 57.168 824.766 60.9531C824.766 64.7852 826.887 67.2109 830.379 67.2109C833.039 67.2109 835.102 65.6406 835.453 63.5078H833.449ZM830.25 56.3711C832.172 56.3711 833.449 57.8242 833.496 59.8633H826.875C827.004 57.8359 828.34 56.3711 830.25 56.3711ZM837.668 67H839.707V59.4062C839.707 57.6836 840.738 56.5469 842.32 56.5469C842.812 56.5469 843.246 56.6055 843.41 56.6641V54.6836C843.246 54.6602 842.941 54.6016 842.59 54.6016C841.16 54.6016 840.035 55.457 839.637 56.8047H839.59V54.8125H837.668V67ZM854.355 67H856.395V50.0898H854.332L849.832 53.3242V55.4453L854.309 52.3281H854.355V67ZM860.426 58.1758C860.426 59.9336 861.539 61 863.836 61.5508L865.77 62.0195C867.164 62.3594 867.645 62.8633 867.645 63.7422C867.645 64.8438 866.625 65.5469 864.973 65.5469C863.32 65.5469 862.383 64.8789 862.137 63.4844H860.098C860.332 65.7695 862.113 67.2109 864.973 67.2109C867.691 67.2109 869.695 65.7109 869.695 63.5898C869.695 61.8438 868.805 60.8828 866.344 60.2852L864.41 59.8164C863.051 59.4883 862.43 58.9141 862.43 58.0703C862.43 57.0039 863.414 56.2656 864.902 56.2656C866.402 56.2656 867.34 57.0508 867.492 58.3281H869.438C869.355 56.1719 867.574 54.6016 864.902 54.6016C862.266 54.6016 860.426 56.0898 860.426 58.1758ZM872.473 51.8711V54.8125H870.656V56.4883H872.473V63.8359C872.473 66.1797 873.34 67.0938 875.578 67.0938C876.059 67.0938 876.621 67.0586 876.867 67V65.2891C876.727 65.3125 876.258 65.3477 876.023 65.3477C874.98 65.3477 874.512 64.8438 874.512 63.7305V56.4883H876.879V54.8125H874.512V51.8711H872.473ZM889.898 54.6016C888.129 54.6016 886.711 55.5039 885.961 56.875H885.914V54.8125H883.98V71.0664H886.02V65.0195H886.066C886.793 66.3555 888.199 67.2109 889.945 67.2109C893.016 67.2109 895.113 64.7266 895.113 60.9062C895.113 57.0859 893.004 54.6016 889.898 54.6016ZM889.5 65.418C887.414 65.418 886.008 63.625 886.008 60.9062C886.008 58.1992 887.414 56.3945 889.5 56.3945C891.668 56.3945 893.027 58.1523 893.027 60.9062C893.027 63.6719 891.668 65.418 889.5 65.418ZM900.738 67.2109C902.379 67.2109 903.926 66.2969 904.652 64.9023H904.699V67H906.633V58.5742C906.633 56.1484 904.828 54.6016 901.969 54.6016C899.086 54.6016 897.281 56.2188 897.141 58.3281H899.109C899.367 57.1328 900.352 56.3945 901.922 56.3945C903.609 56.3945 904.594 57.2852 904.594 58.7734V59.793L901.102 59.9922C898.289 60.1562 896.684 61.4688 896.684 63.5547C896.684 65.7461 898.312 67.2109 900.738 67.2109ZM901.195 65.4766C899.73 65.4766 898.758 64.7148 898.758 63.5547C898.758 62.4062 899.695 61.6797 901.336 61.5742L904.594 61.375V62.3711C904.594 64.1289 903.117 65.4766 901.195 65.4766ZM909.223 67H911.262V59.4062C911.262 57.6836 912.293 56.5469 913.875 56.5469C914.367 56.5469 914.801 56.6055 914.965 56.6641V54.6836C914.801 54.6602 914.496 54.6016 914.145 54.6016C912.715 54.6016 911.59 55.457 911.191 56.8047H911.145V54.8125H909.223V67ZM917.754 51.8711V54.8125H915.938V56.4883H917.754V63.8359C917.754 66.1797 918.621 67.0938 920.859 67.0938C921.34 67.0938 921.902 67.0586 922.148 67V65.2891C922.008 65.3125 921.539 65.3477 921.305 65.3477C920.262 65.3477 919.793 64.8438 919.793 63.7305V56.4883H922.16V54.8125H919.793V51.8711H917.754ZM925.359 71.5586C927.562 71.5586 928.57 70.7031 929.613 67.8555L934.406 54.8125H932.262L928.887 64.9609H928.852L925.477 54.8125H923.297L927.797 67.0117L927.516 67.8672C927.047 69.2852 926.414 69.8359 925.277 69.8359C925.02 69.8359 924.703 69.8242 924.48 69.7773V71.4883C924.703 71.5352 925.113 71.5586 925.359 71.5586ZM945.551 67.2109C947.309 67.2109 948.703 66.3438 949.488 64.9375H949.523V67H951.469V50.0898H949.43V56.793H949.383C948.656 55.457 947.25 54.6016 945.504 54.6016C942.434 54.6016 940.336 57.0859 940.336 60.9062C940.336 64.7266 942.445 67.2109 945.551 67.2109ZM945.938 56.3945C948.035 56.3945 949.441 58.1875 949.441 60.9062C949.441 63.6367 948.035 65.418 945.938 65.418C943.781 65.418 942.422 63.6719 942.422 60.9062C942.422 58.1523 943.781 56.3945 945.938 56.3945ZM957.785 67.2109C959.426 67.2109 960.973 66.2969 961.699 64.9023H961.746V67H963.68V58.5742C963.68 56.1484 961.875 54.6016 959.016 54.6016C956.133 54.6016 954.328 56.2188 954.188 58.3281H956.156C956.414 57.1328 957.398 56.3945 958.969 56.3945C960.656 56.3945 961.641 57.2852 961.641 58.7734V59.793L958.148 59.9922C955.336 60.1562 953.73 61.4688 953.73 63.5547C953.73 65.7461 955.359 67.2109 957.785 67.2109ZM958.242 65.4766C956.777 65.4766 955.805 64.7148 955.805 63.5547C955.805 62.4062 956.742 61.6797 958.383 61.5742L961.641 61.375V62.3711C961.641 64.1289 960.164 65.4766 958.242 65.4766ZM966.926 51.8711V54.8125H965.109V56.4883H966.926V63.8359C966.926 66.1797 967.793 67.0938 970.031 67.0938C970.512 67.0938 971.074 67.0586 971.32 67V65.2891C971.18 65.3125 970.711 65.3477 970.477 65.3477C969.434 65.3477 968.965 64.8438 968.965 63.7305V56.4883H971.332V54.8125H968.965V51.8711H966.926ZM976.84 67.2109C978.48 67.2109 980.027 66.2969 980.754 64.9023H980.801V67H982.734V58.5742C982.734 56.1484 980.93 54.6016 978.07 54.6016C975.188 54.6016 973.383 56.2188 973.242 58.3281H975.211C975.469 57.1328 976.453 56.3945 978.023 56.3945C979.711 56.3945 980.695 57.2852 980.695 58.7734V59.793L977.203 59.9922C974.391 60.1562 972.785 61.4688 972.785 63.5547C972.785 65.7461 974.414 67.2109 976.84 67.2109ZM977.297 65.4766C975.832 65.4766 974.859 64.7148 974.859 63.5547C974.859 62.4062 975.797 61.6797 977.438 61.5742L980.695 61.375V62.3711C980.695 64.1289 979.219 65.4766 977.297 65.4766ZM690.445 90.6016C688.676 90.6016 687.258 91.5039 686.508 92.875H686.461V90.8125H684.527V107.066H686.566V101.02H686.613C687.34 102.355 688.746 103.211 690.492 103.211C693.562 103.211 695.66 100.727 695.66 96.9062C695.66 93.0859 693.551 90.6016 690.445 90.6016ZM690.047 101.418C687.961 101.418 686.555 99.625 686.555 96.9062C686.555 94.1992 687.961 92.3945 690.047 92.3945C692.215 92.3945 693.574 94.1523 693.574 96.9062C693.574 99.6719 692.215 101.418 690.047 101.418ZM702.773 103.211C706.137 103.211 708.41 100.785 708.41 96.9062C708.41 93.0156 706.137 90.6016 702.773 90.6016C699.398 90.6016 697.125 93.0156 697.125 96.9062C697.125 100.785 699.398 103.211 702.773 103.211ZM702.773 101.418C700.617 101.418 699.199 99.7773 699.199 96.9062C699.199 94.0352 700.617 92.3945 702.773 92.3945C704.93 92.3945 706.336 94.0352 706.336 96.9062C706.336 99.7773 704.93 101.418 702.773 101.418ZM725.977 90.8125H723.961L721.523 100.727H721.477L718.711 90.8125H716.742L713.988 100.727H713.941L711.504 90.8125H709.477L712.887 103H714.961L717.703 93.5664H717.75L720.504 103H722.578L725.977 90.8125ZM735.738 99.5078C735.398 100.656 734.262 101.441 732.715 101.441C730.523 101.441 729.152 99.9062 729.152 97.5742V97.457H737.895V96.6836C737.895 92.9922 735.867 90.6016 732.574 90.6016C729.211 90.6016 727.055 93.168 727.055 96.9531C727.055 100.785 729.176 103.211 732.668 103.211C735.328 103.211 737.391 101.641 737.742 99.5078H735.738ZM732.539 92.3711C734.461 92.3711 735.738 93.8242 735.785 95.8633H729.164C729.293 93.8359 730.629 92.3711 732.539 92.3711ZM739.957 103H741.996V95.4062C741.996 93.6836 743.027 92.5469 744.609 92.5469C745.102 92.5469 745.535 92.6055 745.699 92.6641V90.6836C745.535 90.6602 745.23 90.6016 744.879 90.6016C743.449 90.6016 742.324 91.457 741.926 92.8047H741.879V90.8125H739.957V103ZM754.863 99.5078C754.523 100.656 753.387 101.441 751.84 101.441C749.648 101.441 748.277 99.9062 748.277 97.5742V97.457H757.02V96.6836C757.02 92.9922 754.992 90.6016 751.699 90.6016C748.336 90.6016 746.18 93.168 746.18 96.9531C746.18 100.785 748.301 103.211 751.793 103.211C754.453 103.211 756.516 101.641 756.867 99.5078H754.863ZM751.664 92.3711C753.586 92.3711 754.863 93.8242 754.91 95.8633H748.289C748.418 93.8359 749.754 92.3711 751.664 92.3711ZM763.699 103.211C765.457 103.211 766.852 102.344 767.637 100.938H767.672V103H769.617V86.0898H767.578V92.793H767.531C766.805 91.457 765.398 90.6016 763.652 90.6016C760.582 90.6016 758.484 93.0859 758.484 96.9062C758.484 100.727 760.594 103.211 763.699 103.211ZM764.086 92.3945C766.184 92.3945 767.59 94.1875 767.59 96.9062C767.59 99.6367 766.184 101.418 764.086 101.418C761.93 101.418 760.57 99.6719 760.57 96.9062C760.57 94.1523 761.93 92.3945 764.086 92.3945ZM783.211 90.6016C781.441 90.6016 780.023 91.5039 779.273 92.875H779.227V90.8125H777.293V107.066H779.332V101.02H779.379C780.105 102.355 781.512 103.211 783.258 103.211C786.328 103.211 788.426 100.727 788.426 96.9062C788.426 93.0859 786.316 90.6016 783.211 90.6016ZM782.812 101.418C780.727 101.418 779.32 99.625 779.32 96.9062C779.32 94.1992 780.727 92.3945 782.812 92.3945C784.98 92.3945 786.34 94.1523 786.34 96.9062C786.34 99.6719 784.98 101.418 782.812 101.418ZM790.488 103H792.527V95.4062C792.527 93.6836 793.559 92.5469 795.141 92.5469C795.633 92.5469 796.066 92.6055 796.23 92.6641V90.6836C796.066 90.6602 795.762 90.6016 795.41 90.6016C793.98 90.6016 792.855 91.457 792.457 92.8047H792.41V90.8125H790.488V103ZM799.02 88.6445C799.734 88.6445 800.297 88.0703 800.297 87.3672C800.297 86.6523 799.734 86.0898 799.02 86.0898C798.316 86.0898 797.742 86.6523 797.742 87.3672C797.742 88.0703 798.316 88.6445 799.02 88.6445ZM798 103H800.039V90.8125H798V103ZM812.789 90.8125H810.668L807.293 100.832H807.246L803.883 90.8125H801.738L806.227 103H808.312L812.789 90.8125ZM817.723 103.211C819.363 103.211 820.91 102.297 821.637 100.902H821.684V103H823.617V94.5742C823.617 92.1484 821.812 90.6016 818.953 90.6016C816.07 90.6016 814.266 92.2188 814.125 94.3281H816.094C816.352 93.1328 817.336 92.3945 818.906 92.3945C820.594 92.3945 821.578 93.2852 821.578 94.7734V95.793L818.086 95.9922C815.273 96.1562 813.668 97.4688 813.668 99.5547C813.668 101.746 815.297 103.211 817.723 103.211ZM818.18 101.477C816.715 101.477 815.742 100.715 815.742 99.5547C815.742 98.4062 816.68 97.6797 818.32 97.5742L821.578 97.375V98.3711C821.578 100.129 820.102 101.477 818.18 101.477ZM826.863 87.8711V90.8125H825.047V92.4883H826.863V99.8359C826.863 102.18 827.73 103.094 829.969 103.094C830.449 103.094 831.012 103.059 831.258 103V101.289C831.117 101.312 830.648 101.348 830.414 101.348C829.371 101.348 828.902 100.844 828.902 99.7305V92.4883H831.27V90.8125H828.902V87.8711H826.863ZM841.184 99.5078C840.844 100.656 839.707 101.441 838.16 101.441C835.969 101.441 834.598 99.9062 834.598 97.5742V97.457H843.34V96.6836C843.34 92.9922 841.312 90.6016 838.02 90.6016C834.656 90.6016 832.5 93.168 832.5 96.9531C832.5 100.785 834.621 103.211 838.113 103.211C840.773 103.211 842.836 101.641 843.188 99.5078H841.184ZM837.984 92.3711C839.906 92.3711 841.184 93.8242 841.23 95.8633H834.609C834.738 93.8359 836.074 92.3711 837.984 92.3711ZM850.324 103H852.363V95.3594C852.363 93.6719 853.535 92.4062 855.152 92.4062C856.664 92.4062 857.648 93.3672 857.648 94.832V103H859.688V95.2539C859.688 93.6016 860.824 92.4062 862.441 92.4062C864.047 92.4062 864.973 93.3906 864.973 95.0547V103H867.012V94.5859C867.012 92.1719 865.453 90.6016 863.039 90.6016C861.328 90.6016 859.898 91.4688 859.219 92.9219H859.172C858.645 91.4453 857.414 90.6016 855.75 90.6016C854.109 90.6016 852.867 91.4688 852.293 92.7578H852.246V90.8125H850.324V103ZM873.176 103.211C874.816 103.211 876.363 102.297 877.09 100.902H877.137V103H879.07V94.5742C879.07 92.1484 877.266 90.6016 874.406 90.6016C871.523 90.6016 869.719 92.2188 869.578 94.3281H871.547C871.805 93.1328 872.789 92.3945 874.359 92.3945C876.047 92.3945 877.031 93.2852 877.031 94.7734V95.793L873.539 95.9922C870.727 96.1562 869.121 97.4688 869.121 99.5547C869.121 101.746 870.75 103.211 873.176 103.211ZM873.633 101.477C872.168 101.477 871.195 100.715 871.195 99.5547C871.195 98.4062 872.133 97.6797 873.773 97.5742L877.031 97.375V98.3711C877.031 100.129 875.555 101.477 873.633 101.477ZM881.66 103H883.699V95.4062C883.699 93.6836 884.73 92.5469 886.312 92.5469C886.805 92.5469 887.238 92.6055 887.402 92.6641V90.6836C887.238 90.6602 886.934 90.6016 886.582 90.6016C885.152 90.6016 884.027 91.457 883.629 92.8047H883.582V90.8125H881.66V103ZM891.211 98.4062L892.348 97.3281L896.871 103H899.238L893.789 96.0742L899.074 90.8125H896.602L891.211 96.2266V86.0898H889.172V103H891.211V98.4062ZM908.215 99.5078C907.875 100.656 906.738 101.441 905.191 101.441C903 101.441 901.629 99.9062 901.629 97.5742V97.457H910.371V96.6836C910.371 92.9922 908.344 90.6016 905.051 90.6016C901.688 90.6016 899.531 93.168 899.531 96.9531C899.531 100.785 901.652 103.211 905.145 103.211C907.805 103.211 909.867 101.641 910.219 99.5078H908.215ZM905.016 92.3711C906.938 92.3711 908.215 93.8242 908.262 95.8633H901.641C901.77 93.8359 903.105 92.3711 905.016 92.3711ZM913.09 87.8711V90.8125H911.273V92.4883H913.09V99.8359C913.09 102.18 913.957 103.094 916.195 103.094C916.676 103.094 917.238 103.059 917.484 103V101.289C917.344 101.312 916.875 101.348 916.641 101.348C915.598 101.348 915.129 100.844 915.129 99.7305V92.4883H917.496V90.8125H915.129V87.8711H913.09ZM925.594 90.6016C923.824 90.6016 922.406 91.5039 921.656 92.875H921.609V90.8125H919.676V107.066H921.715V101.02H921.762C922.488 102.355 923.895 103.211 925.641 103.211C928.711 103.211 930.809 100.727 930.809 96.9062C930.809 93.0859 928.699 90.6016 925.594 90.6016ZM925.195 101.418C923.109 101.418 921.703 99.625 921.703 96.9062C921.703 94.1992 923.109 92.3945 925.195 92.3945C927.363 92.3945 928.723 94.1523 928.723 96.9062C928.723 99.6719 927.363 101.418 925.195 101.418ZM932.977 103H935.016V86.0898H932.977V103ZM941.332 103.211C942.973 103.211 944.52 102.297 945.246 100.902H945.293V103H947.227V94.5742C947.227 92.1484 945.422 90.6016 942.562 90.6016C939.68 90.6016 937.875 92.2188 937.734 94.3281H939.703C939.961 93.1328 940.945 92.3945 942.516 92.3945C944.203 92.3945 945.188 93.2852 945.188 94.7734V95.793L941.695 95.9922C938.883 96.1562 937.277 97.4688 937.277 99.5547C937.277 101.746 938.906 103.211 941.332 103.211ZM941.789 101.477C940.324 101.477 939.352 100.715 939.352 99.5547C939.352 98.4062 940.289 97.6797 941.93 97.5742L945.188 97.375V98.3711C945.188 100.129 943.711 101.477 941.789 101.477ZM959.941 94.8086C959.684 92.6172 957.867 90.6016 954.82 90.6016C951.457 90.6016 949.219 93.0625 949.219 96.9062C949.219 100.832 951.469 103.211 954.844 103.211C957.609 103.211 959.648 101.5 959.965 99.0742H957.961C957.609 100.539 956.52 101.418 954.855 101.418C952.746 101.418 951.293 99.7422 951.293 96.9062C951.293 94.1406 952.723 92.3945 954.832 92.3945C956.625 92.3945 957.656 93.4844 957.949 94.8086H959.941ZM969.926 99.5078C969.586 100.656 968.449 101.441 966.902 101.441C964.711 101.441 963.34 99.9062 963.34 97.5742V97.457H972.082V96.6836C972.082 92.9922 970.055 90.6016 966.762 90.6016C963.398 90.6016 961.242 93.168 961.242 96.9531C961.242 100.785 963.363 103.211 966.855 103.211C969.516 103.211 971.578 101.641 971.93 99.5078H969.926ZM966.727 92.3711C968.648 92.3711 969.926 93.8242 969.973 95.8633H963.352C963.48 93.8359 964.816 92.3711 966.727 92.3711ZM973.934 94.1758C973.934 95.9336 975.047 97 977.344 97.5508L979.277 98.0195C980.672 98.3594 981.152 98.8633 981.152 99.7422C981.152 100.844 980.133 101.547 978.48 101.547C976.828 101.547 975.891 100.879 975.645 99.4844H973.605C973.84 101.77 975.621 103.211 978.48 103.211C981.199 103.211 983.203 101.711 983.203 99.5898C983.203 97.8438 982.312 96.8828 979.852 96.2852L977.918 95.8164C976.559 95.4883 975.938 94.9141 975.938 94.0703C975.938 93.0039 976.922 92.2656 978.41 92.2656C979.91 92.2656 980.848 93.0508 981 94.3281H982.945C982.863 92.1719 981.082 90.6016 978.41 90.6016C975.773 90.6016 973.934 92.0898 973.934 94.1758Z" fill="#333333" fill-opacity="0.3"/>
<rect x="41.5" y="41.5" width="205" height="363" rx="18.5" fill="white" stroke="#2A3860" stroke-width="3"/>
<path d="M81.4883 87.0898V104H84.5117V98.4102H87.9336C91.3555 98.4102 93.7578 96.125 93.7578 92.75C93.7578 89.375 91.4258 87.0898 88.0625 87.0898H81.4883ZM84.5117 89.5625H87.2656C89.4336 89.5625 90.6875 90.7227 90.6875 92.75C90.6875 94.8008 89.4219 95.9727 87.2539 95.9727H84.5117V89.5625ZM106.695 91.5781H103.777V98.7617C103.777 100.566 102.734 101.762 101.047 101.762C99.4062 101.762 98.5391 100.801 98.5391 99.0195V91.5781H95.6211V99.6055C95.6211 102.477 97.332 104.223 100.027 104.223C101.914 104.223 103.168 103.355 103.824 101.844H103.883V104H106.695V91.5781ZM116.035 104.199C119.176 104.199 121.156 101.762 121.156 97.7891C121.156 93.8164 119.164 91.3672 116.035 91.3672C114.277 91.3672 112.859 92.2578 112.156 93.7109H112.086V87.0898H109.168V104H112.027V101.879H112.086C112.812 103.32 114.207 104.199 116.035 104.199ZM115.133 93.7695C116.996 93.7695 118.168 95.3281 118.168 97.7891C118.168 100.262 117.008 101.809 115.133 101.809C113.328 101.809 112.074 100.227 112.074 97.7891C112.074 95.375 113.328 93.7695 115.133 93.7695ZM123.137 104H126.055V87.0898H123.137V104ZM130.062 89.7031C130.953 89.7031 131.656 88.9883 131.656 88.1211C131.656 87.2422 130.953 86.5391 130.062 86.5391C129.172 86.5391 128.457 87.2422 128.457 88.1211C128.457 88.9883 129.172 89.7031 130.062 89.7031ZM128.609 104H131.527V91.5781H128.609V104ZM133.754 95.1406C133.754 96.9805 134.949 98.1523 137.328 98.6797L139.391 99.1367C140.691 99.4297 141.137 99.8516 141.137 100.602C141.137 101.527 140.258 102.113 138.84 102.113C137.363 102.113 136.531 101.504 136.309 100.297H133.438C133.672 102.699 135.594 104.246 138.84 104.246C141.887 104.246 144.043 102.664 144.043 100.32C144.043 98.5156 143.047 97.5195 140.469 96.9453L138.406 96.4883C137.105 96.1953 136.59 95.7031 136.59 94.9883C136.59 94.0742 137.445 93.4648 138.734 93.4648C140.082 93.4648 140.914 94.1797 141.031 95.3047H143.75C143.68 92.9492 141.758 91.3203 138.734 91.3203C135.734 91.3203 133.754 92.8672 133.754 95.1406ZM145.988 104H148.906V96.8633C148.906 95.0352 149.973 93.8164 151.73 93.8164C153.418 93.8164 154.285 94.8594 154.285 96.5938V104H157.203V95.9961C157.203 93.1484 155.598 91.3438 152.855 91.3438C150.969 91.3438 149.598 92.1992 148.93 93.7109H148.871V87.0898H145.988V104ZM167.773 100.285C167.457 101.316 166.426 101.996 165.066 101.996C163.156 101.996 161.938 100.66 161.938 98.668V98.4922H170.621V97.543C170.621 93.7695 168.418 91.3203 164.891 91.3203C161.305 91.3203 159.031 93.9102 159.031 97.8359C159.031 101.797 161.281 104.246 165.008 104.246C167.949 104.246 170.129 102.629 170.504 100.285H167.773ZM164.902 93.582C166.578 93.582 167.703 94.8125 167.762 96.5703H161.961C162.078 94.8359 163.262 93.582 164.902 93.582ZM172.508 104H175.426V96.7695C175.426 95.0234 176.422 93.957 178.074 93.957C178.566 93.957 179.012 94.0273 179.258 94.1211V91.4844C179.047 91.4375 178.719 91.3672 178.344 91.3672C176.879 91.3672 175.789 92.2344 175.367 93.7461H175.309V91.5781H172.508V104Z" fill="black"/>
<rect x="80" y="150" width="128" height="88" rx="10" stroke="#C5C5CF" stroke-width="3" stroke-miterlimit="4.13357" stroke-linecap="round" stroke-dasharray="8 8"/>
<path d="M80 288C80 282.477 84.4772 278 90 278H198C203.523 278 208 282.477 208 288V356C208 361.523 203.523 366 198 366H90C84.4772 366 80 361.523 80 356V288Z" stroke="#C5C5CF" stroke-width="3" stroke-miterlimit="4.13357" stroke-linecap="round" stroke-dasharray="8 8"/>
<path d="M121.598 197.084H115.656V193.463H121.272V191.661H115.656V188.233H121.598V186.317H113.389V199H121.598V197.084ZM126.827 199.149C128.189 199.149 129.262 198.455 129.771 197.409H129.807V199H131.951V186.317H129.763V191.248H129.71C129.218 190.22 128.163 189.525 126.827 189.525C124.48 189.525 122.96 191.389 122.96 194.333C122.96 197.295 124.48 199.149 126.827 199.149ZM127.486 191.327C128.866 191.327 129.771 192.514 129.771 194.342C129.771 196.188 128.866 197.356 127.486 197.356C126.071 197.356 125.201 196.196 125.201 194.342C125.201 192.496 126.08 191.327 127.486 191.327ZM137.893 202.516C140.608 202.516 142.393 201.074 142.393 198.851V189.684H140.248V191.283H140.213C139.677 190.211 138.604 189.525 137.277 189.525C134.896 189.525 133.401 191.362 133.401 194.307C133.401 197.207 134.931 199.009 137.233 199.009C138.569 199.009 139.668 198.341 140.151 197.339H140.204V198.912C140.204 200.099 139.387 200.898 137.963 200.898C136.926 200.898 136.126 200.415 135.889 199.703H133.718C133.938 201.338 135.59 202.516 137.893 202.516ZM137.901 197.269C136.521 197.269 135.643 196.161 135.643 194.315C135.643 192.487 136.521 191.327 137.901 191.327C139.299 191.327 140.204 192.505 140.204 194.315C140.204 196.135 139.299 197.269 137.901 197.269ZM150.347 196.214C150.109 196.987 149.336 197.497 148.316 197.497C146.884 197.497 145.97 196.495 145.97 195.001V194.869H152.482V194.157C152.482 191.327 150.83 189.49 148.185 189.49C145.495 189.49 143.79 191.433 143.79 194.377C143.79 197.348 145.478 199.185 148.272 199.185C150.479 199.185 152.113 197.972 152.395 196.214H150.347ZM148.193 191.187C149.45 191.187 150.294 192.109 150.338 193.428H145.987C146.075 192.127 146.963 191.187 148.193 191.187ZM156.385 199V194.922L157.633 193.463L161.755 199H164.515L159.25 191.942L164.137 186.317H161.526L156.464 192.25H156.385V186.317H154.117V199H156.385ZM166.642 188.277C167.31 188.277 167.837 187.741 167.837 187.091C167.837 186.432 167.31 185.904 166.642 185.904C165.974 185.904 165.438 186.432 165.438 187.091C165.438 187.741 165.974 188.277 166.642 188.277ZM165.552 199H167.74V189.684H165.552V199ZM170.184 187.504V189.684H168.848V191.371H170.184V196.521C170.184 198.332 170.975 199.044 172.987 199.044C173.453 199.044 173.884 199.009 174.121 198.956V197.286C173.98 197.312 173.699 197.33 173.497 197.33C172.724 197.33 172.372 196.979 172.372 196.214V191.371H174.13V189.684H172.372V187.504H170.184Z" fill="black"/>
<path d="M126.527 317V304.317H124.269V309.591H118.099V304.317H115.831V317H118.099V311.498H124.269V317H126.527ZM134.719 314.214C134.481 314.987 133.708 315.497 132.688 315.497C131.256 315.497 130.342 314.495 130.342 313.001V312.869H136.854V312.157C136.854 309.327 135.202 307.49 132.557 307.49C129.867 307.49 128.162 309.433 128.162 312.377C128.162 315.348 129.85 317.185 132.645 317.185C134.851 317.185 136.485 315.972 136.767 314.214H134.719ZM132.565 309.187C133.822 309.187 134.666 310.109 134.71 311.428H130.359C130.447 310.127 131.335 309.187 132.565 309.187ZM141.012 317.149C142.207 317.149 143.376 316.525 143.912 315.515H143.956V317H146.065V310.584C146.065 308.712 144.562 307.49 142.251 307.49C139.878 307.49 138.393 308.738 138.296 310.479H140.326C140.467 309.705 141.126 309.204 142.163 309.204C143.244 309.204 143.903 309.767 143.903 310.742V311.41L141.442 311.551C139.175 311.691 137.9 312.685 137.9 314.337C137.9 316.016 139.21 317.149 141.012 317.149ZM141.671 315.497C140.722 315.497 140.089 315.014 140.089 314.249C140.089 313.511 140.695 313.036 141.75 312.966L143.903 312.834V313.546C143.903 314.671 142.91 315.497 141.671 315.497ZM151.312 317.149C152.675 317.149 153.747 316.455 154.257 315.409H154.292V317H156.437V304.317H154.248V309.248H154.195C153.703 308.22 152.648 307.525 151.312 307.525C148.966 307.525 147.445 309.389 147.445 312.333C147.445 315.295 148.966 317.149 151.312 317.149ZM151.972 309.327C153.352 309.327 154.257 310.514 154.257 312.342C154.257 314.188 153.352 315.356 151.972 315.356C150.557 315.356 149.687 314.196 149.687 312.342C149.687 310.496 150.565 309.327 151.972 309.327ZM164.443 314.214C164.206 314.987 163.433 315.497 162.413 315.497C160.98 315.497 160.066 314.495 160.066 313.001V312.869H166.579V312.157C166.579 309.327 164.927 307.49 162.281 307.49C159.592 307.49 157.887 309.433 157.887 312.377C157.887 315.348 159.574 317.185 162.369 317.185C164.575 317.185 166.21 315.972 166.491 314.214H164.443ZM162.29 309.187C163.547 309.187 164.391 310.109 164.435 311.428H160.084C160.172 310.127 161.06 309.187 162.29 309.187ZM167.994 317H170.183V311.577C170.183 310.268 170.93 309.468 172.169 309.468C172.538 309.468 172.872 309.521 173.057 309.591V307.613C172.898 307.578 172.652 307.525 172.371 307.525C171.272 307.525 170.455 308.176 170.139 309.31H170.095V307.684H167.994V317ZM120.129 339.149C122.484 339.149 123.97 337.321 123.97 334.342C123.97 331.362 122.476 329.525 120.129 329.525C118.811 329.525 117.747 330.193 117.22 331.283H117.167V326.317H114.979V339H117.123V337.409H117.167C117.712 338.49 118.758 339.149 120.129 339.149ZM119.452 331.327C120.85 331.327 121.729 332.496 121.729 334.342C121.729 336.196 120.858 337.356 119.452 337.356C118.099 337.356 117.158 336.17 117.158 334.342C117.158 332.531 118.099 331.327 119.452 331.327ZM126.536 328.277C127.204 328.277 127.731 327.741 127.731 327.091C127.731 326.432 127.204 325.904 126.536 325.904C125.868 325.904 125.332 326.432 125.332 327.091C125.332 327.741 125.868 328.277 126.536 328.277ZM125.446 339H127.635V329.684H125.446V339ZM132.952 339.149C134.314 339.149 135.387 338.455 135.896 337.409H135.932V339H138.076V326.317H135.888V331.248H135.835C135.343 330.22 134.288 329.525 132.952 329.525C130.605 329.525 129.085 331.389 129.085 334.333C129.085 337.295 130.605 339.149 132.952 339.149ZM133.611 331.327C134.991 331.327 135.896 332.514 135.896 334.342C135.896 336.188 134.991 337.356 133.611 337.356C132.196 337.356 131.326 336.196 131.326 334.342C131.326 332.496 132.205 331.327 133.611 331.327ZM143.394 339.149C144.756 339.149 145.828 338.455 146.338 337.409H146.373V339H148.518V326.317H146.329V331.248H146.276C145.784 330.22 144.729 329.525 143.394 329.525C141.047 329.525 139.526 331.389 139.526 334.333C139.526 337.295 141.047 339.149 143.394 339.149ZM144.053 331.327C145.433 331.327 146.338 332.514 146.338 334.342C146.338 336.188 145.433 337.356 144.053 337.356C142.638 337.356 141.768 336.196 141.768 334.342C141.768 332.496 142.646 331.327 144.053 331.327ZM151.497 328.277C152.165 328.277 152.692 327.741 152.692 327.091C152.692 326.432 152.165 325.904 151.497 325.904C150.829 325.904 150.293 326.432 150.293 327.091C150.293 327.741 150.829 328.277 151.497 328.277ZM150.407 339H152.596V329.684H150.407V339ZM154.433 339H156.621V333.604C156.621 332.268 157.421 331.362 158.678 331.362C159.926 331.362 160.541 332.101 160.541 333.419V339H162.729V332.979C162.729 330.826 161.561 329.508 159.504 329.508C158.071 329.508 157.078 330.176 156.577 331.283H156.533V329.684H154.433V339ZM168.592 342.516C171.308 342.516 173.092 341.074 173.092 338.851V329.684H170.947V331.283H170.912C170.376 330.211 169.304 329.525 167.977 329.525C165.595 329.525 164.101 331.362 164.101 334.307C164.101 337.207 165.63 339.009 167.933 339.009C169.269 339.009 170.367 338.341 170.851 337.339H170.903V338.912C170.903 340.099 170.086 340.898 168.662 340.898C167.625 340.898 166.825 340.415 166.588 339.703H164.417C164.637 341.338 166.289 342.516 168.592 342.516ZM168.601 337.269C167.221 337.269 166.342 336.161 166.342 334.315C166.342 332.487 167.221 331.327 168.601 331.327C169.998 331.327 170.903 332.505 170.903 334.315C170.903 336.135 169.998 337.269 168.601 337.269Z" fill="black"/>
<path d="M143.293 270.707C143.683 271.098 144.317 271.098 144.707 270.707L151.071 264.343C151.462 263.953 151.462 263.319 151.071 262.929C150.681 262.538 150.047 262.538 149.657 262.929L144 268.586L138.343 262.929C137.953 262.538 137.319 262.538 136.929 262.929C136.538 263.319 136.538 263.953 136.929 264.343L143.293 270.707ZM143 246L143 270L145 270L145 246L143 246Z" fill="#2A3860"/>
<path d="M443.707 322.707C444.098 322.317 444.098 321.683 443.707 321.293L437.343 314.929C436.953 314.538 436.319 314.538 435.929 314.929C435.538 315.319 435.538 315.953 435.929 316.343L441.586 322L435.929 327.657C435.538 328.047 435.538 328.681 435.929 329.071C436.319 329.462 436.953 329.462 437.343 329.071L443.707 322.707ZM216 323H307.162V321H216V323ZM307.162 323H443V321H307.162V323Z" fill="#2A3860"/>
<rect x="237" y="307" width="184" height="30" rx="15" fill="#F5F5F7" stroke="#2A3860" stroke-width="2"/>
<path d="M250.127 325.079C250.76 325.079 251.27 324.811 251.507 324.354H251.612V325H252.755V321.713C252.755 320.654 252.056 320.061 250.812 320.061C249.661 320.061 248.866 320.627 248.778 321.506H249.947C250.048 321.203 250.36 321.019 250.777 321.019C251.274 321.019 251.564 321.265 251.564 321.687V322.073L250.43 322.144C249.235 322.227 248.598 322.741 248.598 323.616C248.598 324.49 249.213 325.079 250.127 325.079ZM250.54 324.117C250.074 324.117 249.784 323.888 249.784 323.528C249.784 323.154 250.07 322.939 250.632 322.904L251.564 322.847V323.198C251.564 323.739 251.138 324.117 250.54 324.117ZM258.503 320.153H257.303V322.957C257.303 323.625 256.903 324.051 256.288 324.051C255.677 324.051 255.392 323.712 255.392 323V320.153H254.188V323.291C254.188 324.473 254.75 325.105 255.805 325.105C256.503 325.105 257.026 324.771 257.264 324.187H257.338V325H258.503V320.153ZM261.373 325.075C262.084 325.075 262.563 324.754 262.73 324.165H262.823V325H264.062V318.307H262.805V320.979H262.717C262.555 320.399 262.071 320.074 261.373 320.074C260.265 320.074 259.606 320.838 259.606 322.157V322.992C259.606 324.31 260.265 325.075 261.373 325.075ZM261.838 324.033C261.214 324.033 260.832 323.625 260.832 322.957V322.157C260.832 321.489 261.214 321.084 261.838 321.084C262.458 321.084 262.836 321.489 262.836 322.157V322.957C262.836 323.625 262.458 324.033 261.838 324.033ZM267.542 319.164C268.035 319.164 268.369 318.861 268.369 318.404C268.369 317.947 268.035 317.644 267.542 317.644C267.05 317.644 266.721 317.947 266.721 318.404C266.721 318.861 267.05 319.164 267.542 319.164ZM269.612 325V324.042H268.149V320.153H265.503V321.115H266.98V324.042H265.424V325H269.612ZM274.086 323.638C273.998 323.954 273.616 324.174 273.132 324.174C272.504 324.174 272.095 323.761 272.095 323.128V322.864H275.22V322.196C275.22 320.896 274.398 320.052 273.115 320.052C271.796 320.052 270.917 320.891 270.917 322.161V322.939C270.917 324.314 271.726 325.105 273.137 325.105C274.262 325.105 275.119 324.495 275.22 323.638H274.086ZM273.093 320.983C273.699 320.983 274.06 321.401 274.06 322.095H272.095C272.095 321.401 272.469 320.983 273.093 320.983ZM276.441 325H277.641V322.201C277.641 321.528 278.041 321.102 278.656 321.102C279.267 321.102 279.553 321.44 279.553 322.152V325H280.757V321.867C280.757 320.685 280.194 320.052 279.14 320.052C278.441 320.052 277.918 320.381 277.681 320.966H277.606V320.153H276.441V325ZM286.355 321.845C286.241 320.658 285.512 320.034 284.259 320.034C282.831 320.034 282.04 320.843 282.04 322.315V322.825C282.04 324.297 282.831 325.105 284.259 325.105C285.512 325.105 286.25 324.49 286.355 323.334H285.178C285.094 323.853 284.778 324.104 284.25 324.104C283.604 324.104 283.249 323.62 283.249 322.732V322.407C283.249 321.52 283.604 321.036 284.25 321.036C284.773 321.036 285.099 321.3 285.178 321.845H286.355ZM290.776 323.638C290.688 323.954 290.306 324.174 289.823 324.174C289.194 324.174 288.786 323.761 288.786 323.128V322.864H291.91V322.196C291.91 320.896 291.088 320.052 289.805 320.052C288.487 320.052 287.608 320.891 287.608 322.161V322.939C287.608 324.314 288.417 325.105 289.827 325.105C290.952 325.105 291.809 324.495 291.91 323.638H290.776ZM289.783 320.983C290.39 320.983 290.75 321.401 290.75 322.095H288.786C288.786 321.401 289.159 320.983 289.783 320.983ZM295.29 321.757C295.821 321.757 296.256 321.309 296.256 320.764C296.256 320.219 295.821 319.775 295.29 319.775C294.758 319.775 294.323 320.219 294.323 320.764C294.323 321.309 294.758 321.757 295.29 321.757ZM295.29 325.083C295.821 325.083 296.256 324.635 296.256 324.095C296.256 323.545 295.821 323.102 295.29 323.102C294.758 323.102 294.323 323.545 294.323 324.095C294.323 324.635 294.758 325.083 295.29 325.083ZM307.344 318.659L306.592 321.7H307.858L308.302 318.659H307.344ZM305.34 318.659L304.588 321.7H305.85L306.298 318.659H305.34ZM313.918 325V323.928H312.604V319.731H313.918V318.659H310.042V319.731H311.356V323.928H310.042V325H313.918ZM315.386 325H316.585V322.201C316.585 321.528 316.985 321.102 317.601 321.102C318.211 321.102 318.497 321.44 318.497 322.152V325H319.701V321.867C319.701 320.685 319.139 320.052 318.084 320.052C317.385 320.052 316.862 320.381 316.625 320.966H316.55V320.153H315.386V325ZM322.105 318.769V320.201H320.844V321.164H322.105V323.466C322.105 324.591 322.61 325.009 323.929 325.009C324.025 325.009 324.983 325 325.032 324.991V324.042C324.979 324.046 324.14 324.051 324.025 324.051C323.564 324.051 323.305 323.844 323.305 323.479V321.164H325.089V320.201H323.283V318.769H322.105ZM329.721 323.638C329.633 323.954 329.25 324.174 328.767 324.174C328.139 324.174 327.73 323.761 327.73 323.128V322.864H330.854V322.196C330.854 320.896 330.033 320.052 328.75 320.052C327.431 320.052 326.552 320.891 326.552 322.161V322.939C326.552 324.314 327.361 325.105 328.771 325.105C329.896 325.105 330.753 324.495 330.854 323.638H329.721ZM328.728 320.983C329.334 320.983 329.694 321.401 329.694 322.095H327.73C327.73 321.401 328.104 320.983 328.728 320.983ZM334.142 322.851C334.142 321.81 334.7 321.291 335.842 321.291C336.115 321.291 336.431 321.348 336.651 321.432V320.126C336.479 320.061 336.233 320.025 335.961 320.025C335.047 320.025 334.55 320.434 334.339 321.396H334.15V320.153H331.979V321.041H332.99V324.117H332.067V325H335.548V324.117H334.142V322.851ZM340.848 323.638C340.76 323.954 340.377 324.174 339.894 324.174C339.266 324.174 338.857 323.761 338.857 323.128V322.864H341.981V322.196C341.981 320.896 341.16 320.052 339.876 320.052C338.558 320.052 337.679 320.891 337.679 322.161V322.939C337.679 324.314 338.488 325.105 339.898 325.105C341.023 325.105 341.88 324.495 341.981 323.638H340.848ZM339.854 320.983C340.461 320.983 340.821 321.401 340.821 322.095H338.857C338.857 321.401 339.23 320.983 339.854 320.983ZM343.401 321.568C343.401 322.315 343.862 322.79 344.772 322.987L345.497 323.141C346.007 323.251 346.191 323.383 346.191 323.655C346.191 323.972 345.875 324.178 345.383 324.178C344.882 324.178 344.557 323.994 344.482 323.66H343.295C343.361 324.569 344.126 325.101 345.365 325.101C346.626 325.101 347.426 324.481 347.426 323.501C347.426 322.763 346.991 322.346 346.011 322.144L345.26 321.99C344.79 321.893 344.587 321.735 344.587 321.471C344.587 321.164 344.891 320.957 345.348 320.957C345.796 320.957 346.112 321.155 346.169 321.476H347.303C347.246 320.566 346.53 320.039 345.356 320.039C344.157 320.039 343.401 320.627 343.401 321.568ZM349.922 318.769V320.201H348.661V321.164H349.922V323.466C349.922 324.591 350.428 325.009 351.746 325.009C351.843 325.009 352.801 325 352.849 324.991V324.042C352.796 324.046 351.957 324.051 351.843 324.051C351.381 324.051 351.122 323.844 351.122 323.479V321.164H352.906V320.201H351.1V318.769H349.922ZM362.649 327.123V317.692H361.454V327.123H362.649ZM373.802 325V319.735H375.617V318.659H370.739V319.735H372.554V325H373.802ZM378.649 322.851C378.649 321.81 379.208 321.291 380.35 321.291C380.623 321.291 380.939 321.348 381.159 321.432V320.126C380.987 320.061 380.741 320.025 380.469 320.025C379.555 320.025 379.058 320.434 378.847 321.396H378.658V320.153H376.487V321.041H377.498V324.117H376.575V325H380.056V324.117H378.649V322.851ZM383.65 325.079C384.283 325.079 384.793 324.811 385.03 324.354H385.136V325H386.278V321.713C386.278 320.654 385.58 320.061 384.336 320.061C383.185 320.061 382.389 320.627 382.301 321.506H383.47C383.571 321.203 383.883 321.019 384.301 321.019C384.797 321.019 385.087 321.265 385.087 321.687V322.073L383.954 322.144C382.758 322.227 382.121 322.741 382.121 323.616C382.121 324.49 382.736 325.079 383.65 325.079ZM384.063 324.117C383.598 324.117 383.308 323.888 383.308 323.528C383.308 323.154 383.593 322.939 384.156 322.904L385.087 322.847V323.198C385.087 323.739 384.661 324.117 384.063 324.117ZM387.5 320.153L389.188 325H390.559L392.237 320.153H390.967L389.921 323.827H389.851L388.792 320.153H387.5ZM396.482 323.638C396.395 323.954 396.012 324.174 395.529 324.174C394.9 324.174 394.492 323.761 394.492 323.128V322.864H397.616V322.196C397.616 320.896 396.794 320.052 395.511 320.052C394.193 320.052 393.314 320.891 393.314 322.161V322.939C393.314 324.314 394.123 325.105 395.533 325.105C396.658 325.105 397.515 324.495 397.616 323.638H396.482ZM395.489 320.983C396.096 320.983 396.456 321.401 396.456 322.095H394.492C394.492 321.401 394.865 320.983 395.489 320.983ZM403.136 325V324.042H401.69V318.307H399.027V319.265H400.486V324.042H398.948V325H403.136ZM405.619 321.524L406.37 318.483H405.104L404.656 321.524H405.619ZM407.623 321.524L408.374 318.483H407.108L406.66 321.524H407.623Z" fill="#171717"/>
<path d="M804.5 288C804.5 283.306 808.306 279.5 813 279.5H974C978.694 279.5 982.5 283.306 982.5 288V356C982.5 360.694 978.694 364.5 974 364.5H813C808.306 364.5 804.5 360.694 804.5 356V288Z" fill="white" stroke="#B05AF4" stroke-width="3"/>
<path d="M876.116 305.317V318H880.748C884.545 318 886.777 315.645 886.777 311.628C886.777 307.611 884.536 305.317 880.748 305.317H876.116ZM878.384 307.233H880.511C883.042 307.233 884.466 308.798 884.466 311.637C884.466 314.528 883.06 316.084 880.511 316.084H878.384V307.233ZM889.052 314.458C889.157 316.778 891.1 318.211 894.035 318.211C897.085 318.211 898.992 316.682 898.992 314.256C898.992 312.375 897.876 311.303 895.204 310.749L893.833 310.468C892.251 310.134 891.618 309.58 891.618 308.719C891.618 307.655 892.62 306.987 894.026 306.987C895.477 306.987 896.479 307.708 896.584 308.903H898.755C898.702 306.636 896.848 305.106 894.044 305.106C891.293 305.106 889.333 306.618 889.333 308.851C889.333 310.705 890.52 311.9 893.06 312.419L894.422 312.7C896.074 313.043 896.707 313.605 896.707 314.52C896.707 315.574 895.644 316.33 894.114 316.33C892.532 316.33 891.39 315.627 891.223 314.458H889.052ZM901.688 305.317V318H903.956V313.808H906.522C909.089 313.808 910.891 312.094 910.891 309.562C910.891 307.031 909.142 305.317 906.619 305.317H901.688ZM903.956 307.172H906.021C907.647 307.172 908.588 308.042 908.588 309.562C908.588 311.101 907.639 311.979 906.013 311.979H903.956V307.172Z" fill="#2A3860"/>
<path d="M827.957 331.136V341H831.272C834.205 341 835.928 339.175 835.928 336.064C835.928 332.961 834.198 331.136 831.272 331.136H827.957ZM829.188 332.243H831.19C833.433 332.243 834.67 333.61 834.67 336.078C834.67 338.525 833.426 339.893 831.19 339.893H829.188V332.243ZM841.991 338.963C841.793 339.633 841.13 340.091 840.228 340.091C838.949 340.091 838.149 339.195 838.149 337.835V337.767H843.249V337.315C843.249 335.162 842.066 333.768 840.146 333.768C838.184 333.768 836.926 335.265 836.926 337.473C836.926 339.708 838.163 341.123 840.2 341.123C841.752 341.123 842.955 340.207 843.16 338.963H841.991ZM840.125 334.8C841.246 334.8 841.991 335.647 842.019 336.837H838.156C838.231 335.654 839.011 334.8 840.125 334.8ZM844.452 341H845.642V336.543C845.642 335.559 846.325 334.82 847.269 334.82C848.15 334.82 848.725 335.381 848.725 336.235V341H849.914V336.481C849.914 335.518 850.577 334.82 851.521 334.82C852.457 334.82 852.997 335.395 852.997 336.365V341H854.187V336.092C854.187 334.684 853.277 333.768 851.869 333.768C850.871 333.768 850.037 334.273 849.641 335.121H849.613C849.306 334.26 848.588 333.768 847.617 333.768C846.66 333.768 845.936 334.273 845.601 335.025H845.573V333.891H844.452V341ZM857.782 341.123C858.739 341.123 859.642 340.59 860.065 339.776H860.093V341H861.221V336.085C861.221 334.67 860.168 333.768 858.5 333.768C856.818 333.768 855.766 334.711 855.684 335.941H856.832C856.982 335.244 857.557 334.813 858.473 334.813C859.457 334.813 860.031 335.333 860.031 336.201V336.796L857.994 336.912C856.354 337.008 855.417 337.773 855.417 338.99C855.417 340.269 856.367 341.123 857.782 341.123ZM858.049 340.111C857.194 340.111 856.627 339.667 856.627 338.99C856.627 338.32 857.174 337.896 858.131 337.835L860.031 337.719V338.3C860.031 339.325 859.17 340.111 858.049 340.111ZM862.731 341H863.921V336.816C863.921 335.613 864.652 334.82 865.773 334.82C866.867 334.82 867.407 335.449 867.407 336.598V341H868.597V336.386C868.597 334.772 867.694 333.768 866.136 333.768C865.035 333.768 864.276 334.26 863.88 335.025H863.853V333.891H862.731V341ZM872.808 341.123C873.833 341.123 874.646 340.617 875.104 339.797H875.125V341H876.26V331.136H875.07V335.046H875.043C874.619 334.267 873.799 333.768 872.78 333.768C870.989 333.768 869.766 335.217 869.766 337.445C869.766 339.674 870.996 341.123 872.808 341.123ZM873.033 334.813C874.257 334.813 875.077 335.859 875.077 337.445C875.077 339.038 874.257 340.077 873.033 340.077C871.775 340.077 870.982 339.059 870.982 337.445C870.982 335.839 871.775 334.813 873.033 334.813ZM882.337 337.555V336.447H877.853V337.555H882.337ZM883.745 335.853C883.745 336.878 884.395 337.5 885.734 337.821L886.862 338.095C887.676 338.293 887.956 338.587 887.956 339.1C887.956 339.742 887.361 340.152 886.397 340.152C885.434 340.152 884.887 339.763 884.743 338.949H883.554C883.69 340.282 884.729 341.123 886.397 341.123C887.983 341.123 889.152 340.248 889.152 339.011C889.152 337.992 888.633 337.432 887.197 337.083L886.069 336.81C885.276 336.618 884.914 336.283 884.914 335.791C884.914 335.169 885.488 334.738 886.356 334.738C887.231 334.738 887.778 335.196 887.867 335.941H889.002C888.954 334.684 887.915 333.768 886.356 333.768C884.818 333.768 883.745 334.636 883.745 335.853ZM891.046 332.626C891.463 332.626 891.791 332.291 891.791 331.881C891.791 331.464 891.463 331.136 891.046 331.136C890.636 331.136 890.301 331.464 890.301 331.881C890.301 332.291 890.636 332.626 891.046 332.626ZM890.451 341H891.641V333.891H890.451V341ZM895.94 341.123C896.966 341.123 897.779 340.617 898.237 339.797H898.258V341H899.393V331.136H898.203V335.046H898.176C897.752 334.267 896.932 333.768 895.913 333.768C894.122 333.768 892.898 335.217 892.898 337.445C892.898 339.674 894.129 341.123 895.94 341.123ZM896.166 334.813C897.39 334.813 898.21 335.859 898.21 337.445C898.21 339.038 897.39 340.077 896.166 340.077C894.908 340.077 894.115 339.059 894.115 337.445C894.115 335.839 894.908 334.813 896.166 334.813ZM905.716 338.963C905.518 339.633 904.854 340.091 903.952 340.091C902.674 340.091 901.874 339.195 901.874 337.835V337.767H906.974V337.315C906.974 335.162 905.791 333.768 903.87 333.768C901.908 333.768 900.65 335.265 900.65 337.473C900.65 339.708 901.888 341.123 903.925 341.123C905.477 341.123 906.68 340.207 906.885 338.963H905.716ZM903.85 334.8C904.971 334.8 905.716 335.647 905.743 336.837H901.881C901.956 335.654 902.735 334.8 903.85 334.8ZM914.5 333.768C913.468 333.768 912.641 334.294 912.203 335.094H912.176V333.891H911.048V343.372H912.237V339.845H912.265C912.688 340.624 913.509 341.123 914.527 341.123C916.318 341.123 917.542 339.674 917.542 337.445C917.542 335.217 916.312 333.768 914.5 333.768ZM914.268 340.077C913.051 340.077 912.23 339.031 912.23 337.445C912.23 335.866 913.051 334.813 914.268 334.813C915.532 334.813 916.325 335.839 916.325 337.445C916.325 339.059 915.532 340.077 914.268 340.077ZM918.807 341H919.996V331.136H918.807V341ZM923.681 341.123C924.638 341.123 925.54 340.59 925.964 339.776H925.991V341H927.119V336.085C927.119 334.67 926.066 333.768 924.398 333.768C922.717 333.768 921.664 334.711 921.582 335.941H922.73C922.881 335.244 923.455 334.813 924.371 334.813C925.355 334.813 925.93 335.333 925.93 336.201V336.796L923.893 336.912C922.252 337.008 921.315 337.773 921.315 338.99C921.315 340.269 922.266 341.123 923.681 341.123ZM923.947 340.111C923.093 340.111 922.525 339.667 922.525 338.99C922.525 338.32 923.072 337.896 924.029 337.835L925.93 337.719V338.3C925.93 339.325 925.068 340.111 923.947 340.111ZM929.013 332.175V333.891H927.953V334.868H929.013V339.154C929.013 340.521 929.519 341.055 930.824 341.055C931.104 341.055 931.433 341.034 931.576 341V340.002C931.494 340.016 931.221 340.036 931.084 340.036C930.476 340.036 930.202 339.742 930.202 339.093V334.868H931.583V333.891H930.202V332.175H929.013ZM933.237 341H934.427V334.868H935.876V333.891H934.42V333.104C934.42 332.4 934.728 332.059 935.37 332.059C935.568 332.059 935.767 332.079 935.91 332.1V331.136C935.739 331.108 935.452 331.081 935.186 331.081C933.873 331.081 933.237 331.73 933.237 333.098V333.891H932.246V334.868H933.237V341ZM939.711 341.123C941.673 341.123 942.999 339.708 942.999 337.445C942.999 335.176 941.673 333.768 939.711 333.768C937.742 333.768 936.416 335.176 936.416 337.445C936.416 339.708 937.742 341.123 939.711 341.123ZM939.711 340.077C938.453 340.077 937.626 339.12 937.626 337.445C937.626 335.771 938.453 334.813 939.711 334.813C940.969 334.813 941.789 335.771 941.789 337.445C941.789 339.12 940.969 340.077 939.711 340.077ZM944.202 341H945.392V336.57C945.392 335.565 945.993 334.902 946.916 334.902C947.203 334.902 947.456 334.937 947.552 334.971V333.815C947.456 333.802 947.278 333.768 947.073 333.768C946.239 333.768 945.583 334.267 945.351 335.053H945.323V333.891H944.202V341ZM948.522 341H949.712V336.543C949.712 335.559 950.396 334.82 951.339 334.82C952.221 334.82 952.795 335.381 952.795 336.235V341H953.984V336.481C953.984 335.518 954.647 334.82 955.591 334.82C956.527 334.82 957.067 335.395 957.067 336.365V341H958.257V336.092C958.257 334.684 957.348 333.768 955.939 333.768C954.941 333.768 954.107 334.273 953.711 335.121H953.684C953.376 334.26 952.658 333.768 951.688 333.768C950.73 333.768 950.006 334.273 949.671 335.025H949.644V333.891H948.522V341Z" fill="#505050"/>
<path d="M452.5 288C452.5 283.306 456.306 279.5 461 279.5H622C626.694 279.5 630.5 283.306 630.5 288V356C630.5 360.694 626.694 364.5 622 364.5H461C456.306 364.5 452.5 360.694 452.5 356V288Z" fill="white" stroke="#2C5EF6" stroke-width="3"/>
<path d="M524.589 314.458C524.694 316.778 526.637 318.211 529.572 318.211C532.622 318.211 534.529 316.682 534.529 314.256C534.529 312.375 533.413 311.303 530.741 310.749L529.37 310.468C527.788 310.134 527.155 309.58 527.155 308.719C527.155 307.655 528.157 306.987 529.563 306.987C531.014 306.987 532.016 307.708 532.121 308.903H534.292C534.239 306.636 532.385 305.106 529.581 305.106C526.83 305.106 524.87 306.618 524.87 308.851C524.87 310.705 526.057 311.9 528.597 312.419L529.959 312.7C531.611 313.043 532.244 313.605 532.244 314.52C532.244 315.574 531.181 316.33 529.651 316.33C528.069 316.33 526.927 315.627 526.76 314.458H524.589ZM536.698 314.458C536.804 316.778 538.746 318.211 541.682 318.211C544.731 318.211 546.639 316.682 546.639 314.256C546.639 312.375 545.522 311.303 542.851 310.749L541.479 310.468C539.897 310.134 539.265 309.58 539.265 308.719C539.265 307.655 540.267 306.987 541.673 306.987C543.123 306.987 544.125 307.708 544.23 308.903H546.401C546.349 306.636 544.494 305.106 541.69 305.106C538.939 305.106 536.979 306.618 536.979 308.851C536.979 310.705 538.166 311.9 540.706 312.419L542.068 312.7C543.721 313.043 544.354 313.605 544.354 314.52C544.354 315.574 543.29 316.33 541.761 316.33C540.179 316.33 539.036 315.627 538.869 314.458H536.698ZM549.335 305.317V318H551.603V313.808H554.169C556.735 313.808 558.537 312.094 558.537 309.562C558.537 307.031 556.788 305.317 554.266 305.317H549.335ZM551.603 307.172H553.668C555.294 307.172 556.234 308.042 556.234 309.562C556.234 311.101 555.285 311.979 553.659 311.979H551.603V307.172Z" fill="#2A3860"/>
<path d="M480.479 335.354C480.595 337.057 482.03 338.164 484.184 338.164C486.392 338.164 487.827 337.022 487.827 335.197C487.827 333.803 487.014 332.982 484.956 332.531L483.862 332.292C482.516 331.998 481.989 331.465 481.989 330.686C481.989 329.681 482.939 329.079 484.17 329.079C485.455 329.079 486.31 329.742 486.419 330.822H487.649C487.595 329.147 486.173 327.972 484.204 327.972C482.16 327.972 480.725 329.113 480.725 330.74C480.725 332.142 481.579 333.037 483.555 333.468L484.648 333.707C486.016 334.008 486.562 334.555 486.562 335.382C486.562 336.353 485.592 337.057 484.252 337.057C482.837 337.057 481.853 336.414 481.709 335.354H480.479ZM494.923 330.891H493.733V335.067C493.733 336.277 493.036 337.07 491.881 337.07C490.78 337.07 490.24 336.448 490.24 335.293V330.891H489.051V335.505C489.051 337.118 489.96 338.123 491.512 338.123C492.605 338.123 493.344 337.665 493.768 336.845H493.795V338H494.923V330.891ZM499.92 330.768C498.888 330.768 498.061 331.294 497.623 332.094H497.596V330.891H496.468V340.372H497.657V336.845H497.685C498.108 337.624 498.929 338.123 499.947 338.123C501.738 338.123 502.962 336.674 502.962 334.445C502.962 332.217 501.731 330.768 499.92 330.768ZM499.688 337.077C498.471 337.077 497.65 336.031 497.65 334.445C497.65 332.866 498.471 331.813 499.688 331.813C500.952 331.813 501.745 332.839 501.745 334.445C501.745 336.059 500.952 337.077 499.688 337.077ZM507.617 330.768C506.585 330.768 505.758 331.294 505.32 332.094H505.293V330.891H504.165V340.372H505.354V336.845H505.382C505.806 337.624 506.626 338.123 507.645 338.123C509.436 338.123 510.659 336.674 510.659 334.445C510.659 332.217 509.429 330.768 507.617 330.768ZM507.385 337.077C506.168 337.077 505.348 336.031 505.348 334.445C505.348 332.866 506.168 331.813 507.385 331.813C508.649 331.813 509.442 332.839 509.442 334.445C509.442 336.059 508.649 337.077 507.385 337.077ZM511.924 338H513.113V328.136H511.924V338ZM515.314 340.659C516.6 340.659 517.188 340.16 517.796 338.499L520.592 330.891H519.341L517.372 336.811H517.352L515.383 330.891H514.111L516.736 338.007L516.572 338.506C516.299 339.333 515.93 339.654 515.267 339.654C515.116 339.654 514.932 339.647 514.802 339.62V340.618C514.932 340.646 515.171 340.659 515.314 340.659ZM525.999 334.555V333.447H521.515V334.555H525.999ZM527.407 332.853C527.407 333.878 528.057 334.5 529.396 334.821L530.524 335.095C531.338 335.293 531.618 335.587 531.618 336.1C531.618 336.742 531.023 337.152 530.06 337.152C529.096 337.152 528.549 336.763 528.405 335.949H527.216C527.353 337.282 528.392 338.123 530.06 338.123C531.646 338.123 532.814 337.248 532.814 336.011C532.814 334.992 532.295 334.432 530.859 334.083L529.731 333.81C528.938 333.618 528.576 333.283 528.576 332.791C528.576 332.169 529.15 331.738 530.019 331.738C530.894 331.738 531.44 332.196 531.529 332.941H532.664C532.616 331.684 531.577 330.768 530.019 330.768C528.48 330.768 527.407 331.636 527.407 332.853ZM534.708 329.626C535.125 329.626 535.453 329.291 535.453 328.881C535.453 328.464 535.125 328.136 534.708 328.136C534.298 328.136 533.963 328.464 533.963 328.881C533.963 329.291 534.298 329.626 534.708 329.626ZM534.113 338H535.303V330.891H534.113V338ZM539.603 338.123C540.628 338.123 541.441 337.617 541.899 336.797H541.92V338H543.055V328.136H541.865V332.046H541.838C541.414 331.267 540.594 330.768 539.575 330.768C537.784 330.768 536.561 332.217 536.561 334.445C536.561 336.674 537.791 338.123 539.603 338.123ZM539.828 331.813C541.052 331.813 541.872 332.859 541.872 334.445C541.872 336.038 541.052 337.077 539.828 337.077C538.57 337.077 537.777 336.059 537.777 334.445C537.777 332.839 538.57 331.813 539.828 331.813ZM549.378 335.963C549.18 336.633 548.517 337.091 547.614 337.091C546.336 337.091 545.536 336.195 545.536 334.835V334.767H550.636V334.315C550.636 332.162 549.453 330.768 547.532 330.768C545.57 330.768 544.312 332.265 544.312 334.473C544.312 336.708 545.55 338.123 547.587 338.123C549.139 338.123 550.342 337.207 550.547 335.963H549.378ZM547.512 331.8C548.633 331.8 549.378 332.647 549.405 333.837H545.543C545.618 332.654 546.397 331.8 547.512 331.8ZM558.162 330.768C557.13 330.768 556.303 331.294 555.865 332.094H555.838V330.891H554.71V340.372H555.899V336.845H555.927C556.351 337.624 557.171 338.123 558.189 338.123C559.98 338.123 561.204 336.674 561.204 334.445C561.204 332.217 559.974 330.768 558.162 330.768ZM557.93 337.077C556.713 337.077 555.893 336.031 555.893 334.445C555.893 332.866 556.713 331.813 557.93 331.813C559.194 331.813 559.987 332.839 559.987 334.445C559.987 336.059 559.194 337.077 557.93 337.077ZM562.469 338H563.658V328.136H562.469V338ZM567.343 338.123C568.3 338.123 569.202 337.59 569.626 336.776H569.653V338H570.781V333.085C570.781 331.67 569.729 330.768 568.061 330.768C566.379 330.768 565.326 331.711 565.244 332.941H566.393C566.543 332.244 567.117 331.813 568.033 331.813C569.018 331.813 569.592 332.333 569.592 333.201V333.796L567.555 333.912C565.914 334.008 564.978 334.773 564.978 335.99C564.978 337.269 565.928 338.123 567.343 338.123ZM567.609 337.111C566.755 337.111 566.188 336.667 566.188 335.99C566.188 335.32 566.734 334.896 567.691 334.835L569.592 334.719V335.3C569.592 336.325 568.73 337.111 567.609 337.111ZM572.675 329.175V330.891H571.615V331.868H572.675V336.154C572.675 337.521 573.181 338.055 574.486 338.055C574.767 338.055 575.095 338.034 575.238 338V337.002C575.156 337.016 574.883 337.036 574.746 337.036C574.138 337.036 573.864 336.742 573.864 336.093V331.868H575.245V330.891H573.864V329.175H572.675ZM576.899 338H578.089V331.868H579.538V330.891H578.082V330.104C578.082 329.4 578.39 329.059 579.032 329.059C579.23 329.059 579.429 329.079 579.572 329.1V328.136C579.401 328.108 579.114 328.081 578.848 328.081C577.535 328.081 576.899 328.73 576.899 330.098V330.891H575.908V331.868H576.899V338ZM583.373 338.123C585.335 338.123 586.661 336.708 586.661 334.445C586.661 332.176 585.335 330.768 583.373 330.768C581.404 330.768 580.078 332.176 580.078 334.445C580.078 336.708 581.404 338.123 583.373 338.123ZM583.373 337.077C582.115 337.077 581.288 336.12 581.288 334.445C581.288 332.771 582.115 331.813 583.373 331.813C584.631 331.813 585.451 332.771 585.451 334.445C585.451 336.12 584.631 337.077 583.373 337.077ZM587.864 338H589.054V333.57C589.054 332.565 589.655 331.902 590.578 331.902C590.865 331.902 591.118 331.937 591.214 331.971V330.815C591.118 330.802 590.94 330.768 590.735 330.768C589.901 330.768 589.245 331.267 589.013 332.053H588.985V330.891H587.864V338ZM592.185 338H593.374V333.543C593.374 332.559 594.058 331.82 595.001 331.82C595.883 331.82 596.457 332.381 596.457 333.235V338H597.646V333.481C597.646 332.518 598.31 331.82 599.253 331.82C600.189 331.82 600.729 332.395 600.729 333.365V338H601.919V333.092C601.919 331.684 601.01 330.768 599.602 330.768C598.604 330.768 597.77 331.273 597.373 332.121H597.346C597.038 331.26 596.32 330.768 595.35 330.768C594.393 330.768 593.668 331.273 593.333 332.025H593.306V330.891H592.185V338Z" fill="#505050"/>
<path d="M795.707 322.707C796.098 322.317 796.098 321.683 795.707 321.293L789.343 314.929C788.953 314.538 788.319 314.538 787.929 314.929C787.538 315.319 787.538 315.953 787.929 316.343L793.586 322L787.929 327.657C787.538 328.047 787.538 328.681 787.929 329.071C788.319 329.462 788.953 329.462 789.343 329.071L795.707 322.707ZM640 323H709.803V321H640V323ZM709.803 323H795V321H709.803V323Z" fill="#2A3860"/>
<rect x="656" y="307" width="112" height="30" rx="15" fill="#F5F5F7" stroke="#2A3860" stroke-width="2"/>
<path d="M669.246 325.075C669.958 325.075 670.437 324.754 670.604 324.165H670.696V325H671.935V318.307H670.678V320.979H670.59C670.428 320.399 669.944 320.074 669.246 320.074C668.138 320.074 667.479 320.838 667.479 322.157V322.992C667.479 324.31 668.138 325.075 669.246 325.075ZM669.711 324.033C669.087 324.033 668.705 323.625 668.705 322.957V322.157C668.705 321.489 669.087 321.084 669.711 321.084C670.331 321.084 670.709 321.489 670.709 322.157V322.957C670.709 323.625 670.331 324.033 669.711 324.033ZM676.396 323.638C676.308 323.954 675.925 324.174 675.442 324.174C674.813 324.174 674.405 323.761 674.405 323.128V322.864H677.529V322.196C677.529 320.896 676.708 320.052 675.424 320.052C674.106 320.052 673.227 320.891 673.227 322.161V322.939C673.227 324.314 674.036 325.105 675.446 325.105C676.571 325.105 677.428 324.495 677.529 323.638H676.396ZM675.402 320.983C676.009 320.983 676.369 321.401 676.369 322.095H674.405C674.405 321.401 674.778 320.983 675.402 320.983ZM680.254 325.079C680.887 325.079 681.396 324.811 681.634 324.354H681.739V325H682.882V321.713C682.882 320.654 682.183 320.061 680.939 320.061C679.788 320.061 678.993 320.627 678.905 321.506H680.074C680.175 321.203 680.487 321.019 680.904 321.019C681.401 321.019 681.691 321.265 681.691 321.687V322.073L680.557 322.144C679.362 322.227 678.725 322.741 678.725 323.616C678.725 324.49 679.34 325.079 680.254 325.079ZM680.667 324.117C680.201 324.117 679.911 323.888 679.911 323.528C679.911 323.154 680.197 322.939 680.759 322.904L681.691 322.847V323.198C681.691 323.739 681.265 324.117 680.667 324.117ZM688.612 325V324.042H687.167V318.307H684.503V319.265H685.962V324.042H684.424V325H688.612ZM693.974 325V323.928H692.66V319.731H693.974V318.659H690.098V319.731H691.412V323.928H690.098V325H693.974ZM695.349 318.659V325H697.384C699.172 325 700.086 323.91 700.086 321.783C700.086 319.731 699.159 318.659 697.384 318.659H695.349ZM696.597 319.735H697.212C698.293 319.735 698.812 320.408 698.812 321.805C698.812 323.264 698.311 323.923 697.212 323.923H696.597V319.735ZM703.163 321.757C703.694 321.757 704.129 321.309 704.129 320.764C704.129 320.219 703.694 319.775 703.163 319.775C702.631 319.775 702.196 320.219 702.196 320.764C702.196 321.309 702.631 321.757 703.163 321.757ZM703.163 325.083C703.694 325.083 704.129 324.635 704.129 324.095C704.129 323.545 703.694 323.102 703.163 323.102C702.631 323.102 702.196 323.545 702.196 324.095C702.196 324.635 702.631 325.083 703.163 325.083ZM715.217 318.659L714.465 321.7H715.731L716.175 318.659H715.217ZM713.213 318.659L712.461 321.7H713.723L714.171 318.659H713.213ZM722.116 325V318.659H720.89V321.243H718.816V318.659H717.59V325H718.816V322.319H720.89V325H722.116ZM723.984 326.749C725.17 326.749 725.737 326.31 726.155 325.062L727.825 320.153H726.55L725.478 323.893H725.403L724.331 320.153H723.004L724.709 325.035L724.661 325.22C724.546 325.602 724.278 325.769 723.791 325.769C723.725 325.769 723.553 325.765 723.522 325.756V326.74C723.558 326.745 723.777 326.749 723.984 326.749ZM729.275 325H730.584L733.27 319.705V318.654H728.761V319.696H732.013V319.771L729.275 325ZM739 322.877C739 321.708 738.174 320.838 737.058 320.838C736.662 320.838 736.275 320.983 736.042 321.229L735.955 321.216C736.003 321.111 736.047 321.032 736.24 320.772L737.835 318.659H736.425C736.258 318.87 735.295 320.109 735.089 320.421C734.456 321.317 734.188 322.029 734.188 322.794C734.188 324.183 735.172 325.127 736.609 325.127C737.976 325.127 739 324.161 739 322.877ZM736.587 324.068C735.919 324.068 735.414 323.581 735.414 322.921C735.414 322.262 735.919 321.774 736.587 321.774C737.26 321.774 737.761 322.262 737.761 322.921C737.761 323.581 737.26 324.068 736.587 324.068ZM739.831 320.57V320.597H740.991V320.566C740.991 319.959 741.413 319.546 742.041 319.546C742.656 319.546 743.056 319.907 743.056 320.456C743.056 320.882 742.832 321.216 741.966 322.082L739.901 324.125V325H744.37V323.95H741.597V323.871L742.836 322.688C743.909 321.66 744.273 321.067 744.273 320.373C744.273 319.274 743.39 318.531 742.081 318.531C740.749 318.531 739.831 319.357 739.831 320.57ZM745.394 320.57V320.597H746.554V320.566C746.554 319.959 746.976 319.546 747.604 319.546C748.22 319.546 748.62 319.907 748.62 320.456C748.62 320.882 748.396 321.216 747.53 322.082L745.464 324.125V325H749.934V323.95H747.161V323.871L748.4 322.688C749.472 321.66 749.837 321.067 749.837 320.373C749.837 319.274 748.954 318.531 747.644 318.531C746.312 318.531 745.394 319.357 745.394 320.57ZM752.293 321.524L753.045 318.483H751.779L751.331 321.524H752.293ZM754.297 321.524L755.049 318.483H753.783L753.335 321.524H754.297Z" fill="#171717"/>
</svg>
